<mxfile host="app.diagrams.net" modified="2023-03-29T07:02:05.188Z" agent="Mozilla/5.0 (Windows NT 10.0; Win64; x64) AppleWebKit/537.36 (KHTML, like Gecko) Chrome/111.0.0.0 Safari/537.36" version="21.1.1" etag="If81sK3jrUp7yTQJHqqk" type="github">
  <diagram name="第 1 页" id="8kiX-l5EkHe59Z4uoZw7">
    <mxGraphModel>
      <root>
        <mxCell id="0" />
        <mxCell id="1" parent="0" />
      </root>
    </mxGraphModel>
  </diagram>
</mxfile>
